<?xml version="1.0" encoding="UTF-8" standalone="no"?>
<!DOCTYPE svg PUBLIC "-//W3C//DTD SVG 1.1//EN" "http://www.w3.org/Graphics/SVG/1.1/DTD/svg11.dtd">
<svg version="1.1" xmlns="http://www.w3.org/2000/svg" xmlns:xlink="http://www.w3.org/1999/xlink" preserveAspectRatio="xMidYMid meet" viewBox="0 0 640 640" width="640" height="640"><defs><path d="M640 31.88C623.73 26.61 612.12 21.61 605.17 16.9" id="b1M8GKexe"></path><path d="M640 36.9C618.96 31.52 602.1 24.86 589.42 16.9" id="dbtWswwka"></path><path d="M622.55 52.74C573.27 42.95 533.91 30.32 504.49 14.83" id="aekhM3l2W"></path><path d="M508.78 11.02L509.57 11.82L510.22 12.73L510.71 13.74L511.02 14.84L511.15 16.01L511.18 18L511.09 19.15L510.8 20.23L510.55 20.77L515.04 20.84L514.79 20.32L514.47 19.22L514.36 18.05L514.33 16.07L514.41 14.92L514.69 13.83L515.16 12.83L515.78 11.94L516.56 11.17L517.45 10.55L518.44 10.08L519.52 9.8L520.67 9.71L521.85 9.83L522.95 10.15L523.97 10.64L524.88 11.29L525.66 12.07L526.31 12.98L526.8 13.99L527.12 15.09L527.23 16.27L527.27 18.25L527.18 19.4L526.89 20.48L526.64 21.02L583.98 21.92L583.53 21L583.23 19.9L583.1 18.73L583.07 16.74L583.16 15.59L583.45 14.51L583.91 13.52L584.54 12.63L585.3 11.86L586.2 11.23L587.2 10.76L588.28 10.48L589.43 10.4L590.6 10.51L591.7 10.83L592.71 11.31L593.62 11.96L594.41 12.75L595.06 13.66L595.55 14.68L595.86 15.78L595.99 16.95L596.02 18.94L595.93 20.09L595.64 21.17L595.2 22.11L599.73 22.17L599.29 21.26L598.97 20.15L598.86 18.99L598.83 17L598.91 15.85L599.19 14.76L599.66 13.77L600.29 12.87L601.06 12.11L601.95 11.48L602.94 11.02L604.02 10.73L605.17 10.64L606.35 10.76L607.45 11.07L608.47 11.57L609.38 12.21L610.16 13.01L610.81 13.91L611.3 14.93L611.62 16.03L611.73 17.2L611.76 19.19L611.68 20.34L611.4 21.42L610.96 22.35L617 22.44L617.23 22.45L617.45 22.47L617.67 22.49L617.9 22.53L618.11 22.57L618.32 22.63L618.53 22.68L618.75 22.75L618.95 22.82L619.14 22.91L619.35 22.99L619.53 23.09L619.72 23.2L619.91 23.3L620.08 23.42L620.25 23.54L620.43 23.67L620.59 23.81L620.75 23.95L620.9 24.1L621.05 24.25L621.19 24.4L621.33 24.57L621.45 24.74L621.58 24.92L621.69 25.09L621.8 25.27L621.91 25.46L622 25.65L622.09 25.85L622.18 26.05L622.24 26.25L622.31 26.46L622.37 26.66L622.43 26.89L622.47 27.1L622.5 27.32L622.52 27.54L622.54 27.77L622.55 28L622.55 28.22L622.54 28.43L622.52 28.65L622.5 28.87L622.46 29.08L622.41 29.29L622.36 29.51L622.29 29.71L622.22 29.9L622.15 30.1L622.07 30.3L621.97 30.48L621.88 30.66L621.77 30.85L621.65 31.02L621.54 31.2L621.41 31.36L621.28 31.51L621.14 31.67L621 31.82L620.85 31.97L620.7 32.1L620.53 32.23L620.37 32.35L620.21 32.48L620.02 32.59L619.85 32.69L619.66 32.8L619.47 32.89L619.28 32.97L619.08 33.05L618.88 33.12L618.68 33.18L618.48 33.23L618.26 33.27L618.05 33.31L617.84 33.34L617.62 33.36L617.39 33.37L617.17 33.37L582.32 32.82L560.49 54.64L560.41 54.55L563.74 265.96L550.82 265.76L547.5 54.66L547.19 54.97L524.12 31.91L490.04 31.37L489.81 31.36L489.59 31.34L489.36 31.32L489.14 31.28L488.93 31.24L488.72 31.19L488.5 31.13L488.29 31.07L488.09 30.99L487.9 30.91L487.69 30.82L487.51 30.72L487.32 30.63L487.13 30.51L486.96 30.39L486.78 30.27L486.61 30.14L486.45 30.01L486.29 29.86L486.14 29.72L485.99 29.56L485.85 29.41L485.71 29.24L485.59 29.07L485.46 28.9L485.34 28.72L485.24 28.54L485.13 28.36L485.04 28.16L484.95 27.97L484.86 27.77L484.79 27.56L484.73 27.35L484.67 27.15L484.61 26.93L484.57 26.71L484.54 26.49L484.51 26.27L484.49 26.05L484.48 25.82L484.48 25.59L484.49 25.38L484.51 25.16L484.54 24.95L484.58 24.73L484.63 24.52L484.68 24.31L484.75 24.1L484.81 23.91L484.89 23.71L484.97 23.52L485.06 23.33L485.16 23.15L485.27 22.97L485.38 22.79L485.5 22.63L485.62 22.45L485.76 22.3L485.9 22.14L486.04 21.99L486.19 21.85L486.34 21.71L486.5 21.58L486.67 21.46L486.84 21.33L487.02 21.23L487.19 21.12L487.37 21.02L487.57 20.93L487.76 20.84L487.95 20.76L488.16 20.69L488.36 20.64L488.56 20.58L488.77 20.54L488.99 20.5L489.2 20.47L489.42 20.45L489.64 20.44L489.87 20.44L498.95 20.59L498.7 20.07L498.39 18.97L498.26 17.8L498.23 15.81L498.32 14.66L498.61 13.58L499.07 12.58L499.7 11.69L500.46 10.92L501.36 10.29L502.36 9.83L503.44 9.55L504.59 9.46L505.76 9.58L506.86 9.89L507.87 10.38L508.78 11.02ZM529.74 32L547.98 50.24L559.03 50.41L576.7 32.73L529.74 32Z" id="dE3cgymby"></path><path d="M508.78 11.02L509.57 11.82L510.22 12.73L510.71 13.74L511.02 14.84L511.15 16.01L511.18 18L511.09 19.15L510.8 20.23L510.55 20.77L515.04 20.84L514.79 20.32L514.47 19.22L514.36 18.05L514.33 16.07L514.41 14.92L514.69 13.83L515.16 12.83L515.78 11.94L516.56 11.17L517.45 10.55L518.44 10.08L519.52 9.8L520.67 9.71L521.85 9.83L522.95 10.15L523.97 10.64L524.88 11.29L525.66 12.07L526.31 12.98L526.8 13.99L527.12 15.09L527.23 16.27L527.27 18.25L527.18 19.4L526.89 20.48L526.64 21.02L583.98 21.92L583.53 21L583.23 19.9L583.1 18.73L583.07 16.74L583.16 15.59L583.45 14.51L583.91 13.52L584.54 12.63L585.3 11.86L586.2 11.23L587.2 10.76L588.28 10.48L589.43 10.4L590.6 10.51L591.7 10.83L592.71 11.31L593.62 11.96L594.41 12.75L595.06 13.66L595.55 14.68L595.86 15.78L595.99 16.95L596.02 18.94L595.93 20.09L595.64 21.17L595.2 22.11L599.73 22.17L599.29 21.26L598.97 20.15L598.86 18.99L598.83 17L598.91 15.85L599.19 14.76L599.66 13.77L600.29 12.87L601.06 12.11L601.95 11.48L602.94 11.02L604.02 10.73L605.17 10.64L606.35 10.76L607.45 11.07L608.47 11.57L609.38 12.21L610.16 13.01L610.81 13.91L611.3 14.93L611.62 16.03L611.73 17.2L611.76 19.19L611.68 20.34L611.4 21.42L610.96 22.35L617 22.44L617.23 22.45L617.45 22.47L617.67 22.49L617.9 22.53L618.11 22.57L618.32 22.63L618.53 22.68L618.75 22.75L618.95 22.82L619.14 22.91L619.35 22.99L619.53 23.09L619.72 23.2L619.91 23.3L620.08 23.42L620.25 23.54L620.43 23.67L620.59 23.81L620.75 23.95L620.9 24.1L621.05 24.25L621.19 24.4L621.33 24.57L621.45 24.74L621.58 24.92L621.69 25.09L621.8 25.27L621.91 25.46L622 25.65L622.09 25.85L622.18 26.05L622.24 26.25L622.31 26.46L622.37 26.66L622.43 26.89L622.47 27.1L622.5 27.32L622.52 27.54L622.54 27.77L622.55 28L622.55 28.22L622.54 28.43L622.52 28.65L622.5 28.87L622.46 29.08L622.41 29.29L622.36 29.51L622.29 29.71L622.22 29.9L622.15 30.1L622.07 30.3L621.97 30.48L621.88 30.66L621.77 30.85L621.65 31.02L621.54 31.2L621.41 31.36L621.28 31.51L621.14 31.67L621 31.82L620.85 31.97L620.7 32.1L620.53 32.23L620.37 32.35L620.21 32.48L620.02 32.59L619.85 32.69L619.66 32.8L619.47 32.89L619.28 32.97L619.08 33.05L618.88 33.12L618.68 33.18L618.48 33.23L618.26 33.27L618.05 33.31L617.84 33.34L617.62 33.36L617.39 33.37L617.17 33.37L582.32 32.82L560.49 54.64L560.41 54.55L563.74 265.96L550.82 265.76L547.5 54.66L547.19 54.97L524.12 31.91L490.04 31.37L489.81 31.36L489.59 31.34L489.36 31.32L489.14 31.28L488.93 31.24L488.72 31.19L488.5 31.13L488.29 31.07L488.09 30.99L487.9 30.91L487.69 30.82L487.51 30.72L487.32 30.63L487.13 30.51L486.96 30.39L486.78 30.27L486.61 30.14L486.45 30.01L486.29 29.86L486.14 29.72L485.99 29.56L485.85 29.41L485.71 29.24L485.59 29.07L485.46 28.9L485.34 28.72L485.24 28.54L485.13 28.36L485.04 28.16L484.95 27.97L484.86 27.77L484.79 27.56L484.73 27.35L484.67 27.15L484.61 26.93L484.57 26.71L484.54 26.49L484.51 26.27L484.49 26.05L484.48 25.82L484.48 25.59L484.49 25.38L484.51 25.16L484.54 24.95L484.58 24.73L484.63 24.52L484.68 24.31L484.75 24.1L484.81 23.91L484.89 23.71L484.97 23.52L485.06 23.33L485.16 23.15L485.27 22.97L485.38 22.79L485.5 22.63L485.62 22.45L485.76 22.3L485.9 22.14L486.04 21.99L486.19 21.85L486.34 21.71L486.5 21.58L486.67 21.46L486.84 21.33L487.02 21.23L487.19 21.12L487.37 21.02L487.57 20.93L487.76 20.84L487.95 20.76L488.16 20.69L488.36 20.64L488.56 20.58L488.77 20.54L488.99 20.5L489.2 20.47L489.42 20.45L489.64 20.44L489.87 20.44L498.95 20.59L498.7 20.07L498.39 18.97L498.26 17.8L498.23 15.81L498.32 14.66L498.61 13.58L499.07 12.58L499.7 11.69L500.46 10.92L501.36 10.29L502.36 9.83L503.44 9.55L504.59 9.46L505.76 9.58L506.86 9.89L507.87 10.38L508.78 11.02ZM529.74 32L547.98 50.24L559.03 50.41L576.7 32.73L529.74 32Z" id="b4rLU9l29"></path><path d="M624.07 48.16C582.85 39.36 548.07 28.51 519.72 15.6" id="d10j8Slw"></path></defs><g><g><g><use xlink:href="#b1M8GKexe" opacity="1" fill="#000000" fill-opacity="0"></use><g><use xlink:href="#b1M8GKexe" opacity="1" fill-opacity="0" stroke="#080909" stroke-width="1" stroke-opacity="1"></use></g></g><g><use xlink:href="#dbtWswwka" opacity="1" fill="#000000" fill-opacity="0"></use><g><use xlink:href="#dbtWswwka" opacity="1" fill-opacity="0" stroke="#080909" stroke-width="1" stroke-opacity="1"></use></g></g><g><use xlink:href="#aekhM3l2W" opacity="1" fill="#000000" fill-opacity="0"></use><g><use xlink:href="#aekhM3l2W" opacity="1" fill-opacity="0" stroke="#080909" stroke-width="1" stroke-opacity="1"></use></g></g><g><use xlink:href="#dE3cgymby" opacity="1" fill="#000000" fill-opacity="1"></use><g><use xlink:href="#dE3cgymby" opacity="1" fill-opacity="0" stroke="#000000" stroke-width="1" stroke-opacity="0"></use></g></g><g><use xlink:href="#b4rLU9l29" opacity="1" fill="#000000" fill-opacity="0"></use><g><use xlink:href="#b4rLU9l29" opacity="1" fill-opacity="0" stroke="#000000" stroke-width="1" stroke-opacity="0"></use></g></g><g><use xlink:href="#d10j8Slw" opacity="1" fill="#000000" fill-opacity="0"></use><g><use xlink:href="#d10j8Slw" opacity="1" fill-opacity="0" stroke="#080909" stroke-width="1" stroke-opacity="1"></use></g></g></g></g></svg>